{"title":"Not Suitable for Children 2012 720p BluRay x264 PFa DUAL GuiVGA","uid":11176791,"size":4951007733,"categoryP":"video","categoryS":"hd___movies","magnet":"?xt=urn:btih:42223056a2a5a39bba74e07f87a4699ab5a8023c&amp;dn=Not+Suitable+for+Children+2012+720p+BluRay+x264+PFa+DUAL+GuiVGA&amp;tr=udp%3A%2F%2Ftracker.openbittorrent.com%3A80&amp;tr=udp%3A%2F%2Fopen.demonii.com%3A1337&amp;tr=udp%3A%2F%2Ftracker.coppersurfer.tk%3A6969&amp;tr=udp%3A%2F%2Fexodus.desync.com%3A6969","seeders":0,"leechers":1,"uploader":"Alemao99","files":3,"time":1412798963,"description":"View more Australian comedy Youth in 2013 A beautiful, full of girlfriends partying and discovers a serious disease that will take your fertility. Now it needs to be a father in just three weeks but this will have to convince someone to be a mother. \n\nOriginal title: Not Suitable for Children \nTitle in Portuguese: Needs to Be Father \nDirector: Peter Templeman \nDuration: 1h35mn \nRelease Year: 2012 \nRelease Date in Brazil: 2014 \nGenre: Action \nIMDB: http://www.imdb.com/title/tt1935065/ \n\nSize: 4.61 GB \nFile Extension: .MKV \nVideo Quality: Blu-ray \nVideo Codec: H.264 / AVC \nAudio Codec: AC3 / DTS \nResolution: 1280 x 544 \nAudio Language: Portuguese / English \nSubtitles: Portuguese\n\nVideo\nID                                       : 1\nFormat                                   : AVC\nFormat/Info                              : Advanced Video Codec\nFormat profile                           : &lt;a class=&quot;__cf_email__&quot; href=&quot;/cdn-cgi/l/email-protection&quot; data-cfemail=&quot;abe3c2ccc3ebe79f859a&quot;&gt;[email&amp;#160;protected]&lt;/a&gt;&lt;script cf-hash='f9e31' type=&quot;text/javascript&quot;&gt;\n/* &lt;![CDATA[ */!function(){try{var t=&quot;currentScript&quot;in document?document.currentScript:function(){for(var t=document.getElementsByTagName(&quot;script&quot;),e=t.length;e--;)if(t[e].getAttribute(&quot;cf-hash&quot;))return t[e]}();if(t&amp;&amp;t.previousSibling){var e,r,n,i,c=t.previousSibling,a=c.getAttribute(&quot;data-cfemail&quot;);if(a){for(e=&quot;&quot;,r=parseInt(a.substr(0,2),16),n=2;a.length-n;n+=2)i=parseInt(a.substr(n,2),16)^r,e+=String.fromCharCode(i);e=document.createTextNode(e),c.parentNode.replaceChild(e,c)}}}catch(u){}}();/* ]]&gt; */&lt;/script&gt;\nFormat settings, CABAC                   : Yes\nFormat settings, ReFrames                : 5 frames\nCodec ID                                 : V_MPEG4/ISO/AVC\nDuration                                 : 1h 35mn\nBit rate                                 : 4 992 Kbps\nWidth                                    : 1 280 pixels\nHeight                                   : 544 pixels\nDisplay aspect ratio                     : 2.35:1\nFrame rate                               : 24.000 fps\nColor space                              : YUV\nChroma subsampling                       : 4:2:0\nBit depth                                : 8 bits\nScan type                                : Progressive\nBits/(Pixel*Frame)                       : 0.299\nStream size                              : 3.25 GiB (71%)\nTitle                                    : GuiVGA\nWriting library                          : x264 core 129 r2230 1cffe9f\nEncoding settings                        : cabac=1 / ref=5 / deblock=1:0:0 / analyse=0x3:0x133 / me=umh / subme=8 / psy=1 / psy_rd=1.00:0.00 / mixed_ref=1 / me_range=16 / chroma_me=1 / trellis=1 / 8x8dct=1 / cqm=0 / deadzone=21,11 / fast_pskip=0 / chroma_qp_offset=-2 / threads=12 / lookahead_threads=2 / sliced_threads=0 / nr=0 / decimate=1 / interlaced=0 / bluray_compat=0 / constrained_intra=0 / bframes=3 / b_pyramid=2 / b_adapt=1 / b_bias=0 / direct=1 / weightb=1 / open_gop=0 / weightp=2 / keyint=250 / keyint_min=24 / scenecut=40 / intra_refresh=0 / rc_lookahead=40 / rc=2pass / mbtree=1 / bitrate=4992 / ratetol=1.0 / qcomp=0.60 / qpmin=0 / qpmax=69 / qpstep=4 / cplxblur=20.0 / qblur=0.5 / ip_ratio=1.40 / aq=1:1.00\nDefault                                  : No\nForced                                   : No\n\nAudio #1\nID                                       : 2\nFormat                                   : AC-3\nFormat/Info                              : Audio Coding 3\nMode extension                           : CM (complete main)\nFormat settings, Endianness              : Big\nCodec ID                                 : A_AC3\nDuration                                 : 1h 35mn\nBit rate mode                            : Constant\nBit rate                                 : 384 Kbps\nChannel(s)                               : 6 channels\nChannel positions                        : Front: L C R, Side: L R, LFE\nSampling rate                            : 48.0 KHz\nBit depth                                : 16 bits\nCompression mode                         : Lossy\nStream size                              : 263 MiB (6%)\nTitle                                    : GuiVGA\nLanguage                                 : Portuguese\nDefault                                  : Yes\nForced                                   : Yes\n\nAudio #2\nID                                       : 3\nFormat                                   : DTS\nFormat/Info                              : Digital Theater Systems\nCodec ID                                 : A_DTS\nDuration                                 : 1h 35mn\nBit rate mode                            : Constant\nBit rate                                 : 1 510 Kbps\nChannel(s)                               : 6 channels\nChannel positions                        : Front: L C R, Side: L R, LFE\nSampling rate                            : 48.0 KHz\nBit depth                                : 24 bits\nCompression mode                         : Lossy\nDelay relative to video                  : 11ms\nStream size                              : 1.01 GiB (22%)\nTitle                                    : GuiVGA\nLanguage                                 : English\nDefault                                  : No\nForced                                   : No\n\n\n\nSEED PLEASE\n\nENJOY...","torrent":{"xt":"urn:btih:42223056a2a5a39bba74e07f87a4699ab5a8023c","amp;dn":"Not+Suitable+for+Children+2012+720p+BluRay+x264+PFa+DUAL+GuiVGA","amp;tr":["udp%3A%2F%2Ftracker.openbittorrent.com%3A80","udp%3A%2F%2Fopen.demonii.com%3A1337","udp%3A%2F%2Ftracker.coppersurfer.tk%3A6969","udp%3A%2F%2Fexodus.desync.com%3A6969"],"infoHash":"42223056a2a5a39bba74e07f87a4699ab5a8023c","infoHashBuffer":{"type":"Buffer","data":[66,34,48,86,162,165,163,155,186,116,224,127,135,164,105,154,181,168,2,60]},"announce":[],"urlList":[]}}